<svg width="70" height="70" viewBox="0 0 70 70" fill="none" xmlns="http://www.w3.org/2000/svg">
<g clip-path="url(#clip0_2774_2000)">
<g clip-path="url(#clip1_2774_2000)">
<path d="M40.8682 8.20007H9.17871C7.69521 8.20007 6.49316 9.35841 6.49316 10.788V58.6122C6.49316 60.0417 7.69521 61.2001 9.17871 61.2001H49.6402C51.1237 61.2001 52.3258 60.0417 52.3258 58.6122L52.4515 19.328L40.8682 8.20007Z" stroke="#6D684F"/>
<path d="M46.9414 14.0204L51.6318 18.7762H43.9268C42.7713 18.7762 41.8341 17.8389 41.834 16.6805V9.33582L46.9414 14.0204Z" stroke="#6D684F"/>
<path d="M54.2241 33.9164H4.59521C3.11203 33.9164 1.90967 35.075 1.90967 36.5043V51.2035C1.90967 52.6327 3.11203 53.7914 4.59521 53.7914H54.2241C55.7073 53.7914 56.9097 52.6327 56.9097 51.2035V36.5043C56.9097 35.075 55.7073 33.9164 54.2241 33.9164Z" stroke="#6D684F"/>
<path d="M25.9842 18.8766H12.1504C11.5571 18.8766 11.0762 19.34 11.0762 19.9117V20.0494C11.0762 20.6211 11.5571 21.0846 12.1504 21.0846H25.9842C26.5775 21.0846 27.0584 20.6211 27.0584 20.0494V19.9117C27.0584 19.34 26.5775 18.8766 25.9842 18.8766Z" stroke="#6D684F"/>
<path d="M36.3558 23.0834H12.1504C11.5571 23.0834 11.0762 23.5468 11.0762 24.1185V24.2562C11.0762 24.8279 11.5571 25.2914 12.1504 25.2914H36.3558C36.949 25.2914 37.43 24.8279 37.43 24.2562V24.1185C37.43 23.5468 36.949 23.0834 36.3558 23.0834Z" stroke="#6D684F"/>
<path d="M36.3558 27.2914H12.1504C11.5571 27.2914 11.0762 27.7548 11.0762 28.3265V28.4642C11.0762 29.0359 11.5571 29.4994 12.1504 29.4994H36.3558C36.949 29.4994 37.43 29.0359 37.43 28.4642V28.3265C37.43 27.7548 36.949 27.2914 36.3558 27.2914Z" stroke="#6D684F"/>
<path d="M12.3708 44.07C12.8411 44.4187 13.0762 44.889 13.0762 45.4161C13.0762 46.3648 12.3464 47.2001 10.9436 47.2001H8.32436V41.1183H10.9517C12.0545 41.1183 12.9141 41.7589 12.9141 42.8455C12.9141 43.3402 12.7195 43.7537 12.3708 44.07ZM9.78398 42.5779V43.4456H10.6598C11.2193 43.4456 11.4544 43.3402 11.4544 42.9915C11.4544 42.7401 11.3004 42.5779 10.9111 42.5779H9.78398ZM10.903 45.7404C11.3571 45.7404 11.6166 45.5864 11.6166 45.262C11.6166 44.9214 11.3409 44.743 10.9598 44.743H9.78398V45.7404H10.903ZM15.744 41.1183C17.6496 41.1183 18.6227 42.3914 18.6227 44.1592C18.6227 45.927 17.6496 47.2001 15.744 47.2001H13.7897V41.1183H15.744ZM15.744 45.7404C16.7901 45.7404 17.1631 45.1566 17.1631 44.1592C17.1631 43.1618 16.7901 42.5779 15.744 42.5779H15.2493V45.7404H15.744ZM19.3343 47.2001V41.1183H23.6807V42.5779H20.7939V43.4294H23.3563V44.889H20.7939V45.7404H23.6807V47.2001H19.3343ZM29.4807 41.1183H30.2429L27.8913 47.2001H27.1291L29.4807 41.1183ZM37.8141 44.07C38.2844 44.4187 38.5196 44.889 38.5196 45.4161C38.5196 46.3648 37.7898 47.2001 36.3869 47.2001H33.7677V41.1183H36.395C37.4978 41.1183 38.3574 41.7589 38.3574 42.8455C38.3574 43.3402 38.1628 43.7537 37.8141 44.07ZM35.2273 42.5779V43.4456H36.1031C36.6626 43.4456 36.8978 43.3402 36.8978 42.9915C36.8978 42.7401 36.7437 42.5779 36.3545 42.5779H35.2273ZM36.3464 45.7404C36.8005 45.7404 37.0599 45.5864 37.0599 45.262C37.0599 44.9214 36.7842 44.743 36.4031 44.743H35.2273V45.7404H36.3464ZM41.1873 41.1183C43.0929 41.1183 44.066 42.3914 44.066 44.1592C44.066 45.927 43.0929 47.2001 41.1873 47.2001H39.233V41.1183H41.1873ZM41.1873 45.7404C42.2334 45.7404 42.6064 45.1566 42.6064 44.1592C42.6064 43.1618 42.2334 42.5779 41.1873 42.5779H40.6927V45.7404H41.1873ZM47.8185 43.8348L49.497 41.1183H50.8675V47.2001H49.4078V44.0376L47.8185 46.6081L46.2372 44.0376V47.2001H44.7776V41.1183H46.1399L47.8185 43.8348Z" fill="#6D684F"/>
</g>
</g>
<defs>
<clipPath id="clip0_2774_2000">
<rect width="70" height="69" fill="white" transform="translate(0 0.200073)"/>
</clipPath>
<clipPath id="clip1_2774_2000">
<rect width="1920" height="901" fill="white" transform="translate(0 0.200073)"/>
</clipPath>
</defs>
</svg>
