<svg width="70" height="70" viewBox="0 0 70 70" fill="none" xmlns="http://www.w3.org/2000/svg">
<g clip-path="url(#clip0_2774_2113)">
<g clip-path="url(#clip1_2774_2113)">
<path d="M56.7742 37.4037V20.3241C59.7242 19.899 62 17.3619 62 14.297C62 10.9359 59.2652 8.2002 55.9032 8.2002C52.5413 8.2002 49.8064 10.9359 49.8064 14.297H8V49.1357H34.1735C34.6264 56.4135 40.6752 62.2002 48.0645 62.2002C55.7482 62.2002 62 55.9484 62 48.2647C62 43.8759 59.9558 39.96 56.7742 37.4037ZM55.9032 9.94213C58.3045 9.94213 60.2581 11.8957 60.2581 14.297C60.2581 16.6982 58.3045 18.6518 55.9032 18.6518C53.502 18.6518 51.5484 16.6982 51.5484 14.297C51.5484 11.8957 53.502 9.94213 55.9032 9.94213ZM9.74194 16.0389H50.0634C50.2715 16.7339 50.6025 17.3741 51.0275 17.942L45.7007 23.2688C45.3593 23.1051 44.983 23.0066 44.5806 23.0066C44.1783 23.0066 43.802 23.1051 43.4615 23.2688L41.7065 21.5138C41.8693 21.1724 41.9677 20.7961 41.9677 20.3937C41.9677 18.9532 40.7954 17.7808 39.3548 17.7808C37.9143 17.7808 36.7419 18.9532 36.7419 20.3937C36.7419 20.7961 36.8404 21.1724 37.0041 21.5129L32.6362 25.8808C32.2948 25.718 31.9185 25.6196 31.5161 25.6196C30.0755 25.6196 28.9032 26.7919 28.9032 28.2325C28.9032 29.673 30.0755 30.8454 31.5161 30.8454C32.9567 30.8454 34.129 29.673 34.129 28.2325C34.129 27.8301 34.0306 27.4538 33.8669 27.1133L38.2348 22.7454C38.5762 22.9082 38.9525 23.0066 39.3548 23.0066C39.7572 23.0066 40.1335 22.9082 40.474 22.7445L42.229 24.4995C42.0662 24.8409 41.9677 25.2172 41.9677 25.6196C41.9677 27.0601 43.1401 28.2325 44.5806 28.2325C46.0212 28.2325 47.1936 27.0601 47.1936 25.6196C47.1936 25.2172 47.0951 24.8409 46.9314 24.5004L52.2591 19.1735C53.056 19.771 54.0019 20.176 55.0323 20.3249V36.2157C52.9794 35.0234 50.6043 34.3292 48.0645 34.3292C43.9013 34.3292 40.1683 36.1739 37.6129 39.0786V35.2002H32.3871V45.6518H34.3834C34.2754 46.2206 34.21 46.8032 34.1735 47.3937H9.74194V16.0389ZM44.5806 24.7486C45.0605 24.7486 45.4516 25.1388 45.4516 25.6196C45.4516 26.1003 45.0605 26.4905 44.5806 26.4905C44.1007 26.4905 43.7097 26.1003 43.7097 25.6196C43.7097 25.1388 44.1007 24.7486 44.5806 24.7486ZM38.4839 20.3937C38.4839 19.913 38.8749 19.5228 39.3548 19.5228C39.8347 19.5228 40.2258 19.913 40.2258 20.3937C40.2258 20.8745 39.8347 21.2647 39.3548 21.2647C38.8749 21.2647 38.4839 20.8745 38.4839 20.3937ZM32.3871 28.2325C32.3871 28.7132 31.996 29.1034 31.5161 29.1034C31.0362 29.1034 30.6452 28.7132 30.6452 28.2325C30.6452 27.7517 31.0362 27.3615 31.5161 27.3615C31.996 27.3615 32.3871 27.7517 32.3871 28.2325ZM48.0645 55.2325C44.2227 55.2325 41.0968 52.1065 41.0968 48.2647C41.0968 44.4229 44.2227 41.297 48.0645 41.297C51.9064 41.297 55.0323 44.4229 55.0323 48.2647C55.0323 52.1065 51.9064 55.2325 48.0645 55.2325ZM35.871 41.533C35.4538 42.2855 35.1089 43.0807 34.8354 43.9099H34.129V36.9421H35.871V41.533ZM47.1936 36.1156V39.5995C42.7986 40.0384 39.3548 43.7566 39.3548 48.2647C39.3548 49.5389 39.637 50.747 40.1309 51.8392L37.1095 53.5837C36.3239 51.9742 35.871 50.173 35.871 48.2647C35.871 41.8352 40.8764 36.565 47.1936 36.1156ZM48.0645 60.4583C43.8717 60.4583 40.1666 58.3305 37.9717 55.0975L41.0053 53.3459C42.5887 55.539 45.159 56.9744 48.0645 56.9744C50.9701 56.9744 53.5403 55.539 55.1237 53.3459L58.1573 55.0975C55.9625 58.3305 52.2574 60.4583 48.0645 60.4583ZM59.0195 53.5837L55.9982 51.8392C56.492 50.747 56.7742 49.5389 56.7742 48.2647C56.7742 43.7566 53.3304 40.0375 48.9355 39.5995V36.1156C55.2526 36.565 60.2581 41.8352 60.2581 48.2647C60.2581 50.173 59.8052 51.9742 59.0195 53.5837Z" fill="#59677D"/>
<path d="M48.0647 43.0388C45.1826 43.0388 42.8389 45.3826 42.8389 48.2646C42.8389 51.1467 45.1826 53.4904 48.0647 53.4904C50.9467 53.4904 53.2905 51.1467 53.2905 48.2646C53.2905 45.3826 50.9467 43.0388 48.0647 43.0388ZM48.0647 51.7485C46.1433 51.7485 44.5808 50.186 44.5808 48.2646C44.5808 46.3433 46.1433 44.7808 48.0647 44.7808C49.986 44.7808 51.5485 46.3433 51.5485 48.2646C51.5485 50.186 49.986 51.7485 48.0647 51.7485Z" fill="#59677D"/>
<path d="M11.4839 17.7808H13.2258V19.5227H11.4839V17.7808Z" fill="#59677D"/>
<path d="M14.9678 17.7808H27.1613V19.5227H14.9678V17.7808Z" fill="#59677D"/>
<path d="M11.4839 21.2646H13.2258V23.0066H11.4839V21.2646Z" fill="#59677D"/>
<path d="M14.9678 21.2646H27.1613V23.0066H14.9678V21.2646Z" fill="#59677D"/>
<path d="M11.4839 24.7485H13.2258V26.4905H11.4839V24.7485Z" fill="#59677D"/>
<path d="M14.9678 24.7485H27.1613V26.4905H14.9678V24.7485Z" fill="#59677D"/>
<path d="M11.4839 28.2324H13.2258V29.9744H11.4839V28.2324Z" fill="#59677D"/>
<path d="M14.9678 28.2324H27.1613V29.9744H14.9678V28.2324Z" fill="#59677D"/>
<path d="M11.4839 45.6518H16.7097V36.9421H11.4839V45.6518ZM13.2258 38.6841H14.9678V43.9099H13.2258V38.6841Z" fill="#59677D"/>
<path d="M18.4517 45.6518H23.6775V38.6841H18.4517V45.6518ZM20.1936 40.426H21.9355V43.9099H20.1936V40.426Z" fill="#59677D"/>
<path d="M25.4194 45.6518H30.6452V31.7163H25.4194V45.6518ZM27.1614 33.4582H28.9033V43.9099H27.1614V33.4582Z" fill="#59677D"/>
</g>
</g>
<defs>
<clipPath id="clip0_2774_2113">
<rect width="70" height="69" fill="white" transform="translate(0 0.200195)"/>
</clipPath>
<clipPath id="clip1_2774_2113">
<rect width="1920" height="901" fill="white" transform="translate(0 0.200195)"/>
</clipPath>
</defs>
</svg>
