<svg width="70" height="70" viewBox="0 0 70 70" fill="none" xmlns="http://www.w3.org/2000/svg">
<g clip-path="url(#clip0_2769_1768)">
<g clip-path="url(#clip1_2769_1768)">
<g clip-path="url(#clip2_2769_1768)">
<path fill-rule="evenodd" clip-rule="evenodd" d="M44.9027 43.0926C45.1646 42.4189 45.4616 41.7555 45.6831 41.0686C46.9343 37.1875 48.1735 33.303 49.4046 29.4153C49.8776 27.9218 50.396 26.4512 51.3268 25.1677C52.799 23.1393 54.8498 22.0768 57.2768 21.7054C58.2329 21.5634 59.1978 21.4892 60.1643 21.4834C63.0447 21.4561 65.9262 21.4752 68.8071 21.4779C68.9603 21.4779 69.1134 21.4938 69.3305 21.5064C69.26 21.6726 69.2217 21.7935 69.1604 21.9023C68.0913 23.8131 67.0429 25.7354 65.9421 27.627C64.0253 30.9203 62.1052 34.2125 60.1282 37.4696C58.86 39.5582 57.4846 41.5821 55.9244 43.4711C54.7732 44.8645 53.5614 46.1967 52.0164 47.1734C50.9637 47.8389 49.8393 48.2283 48.5629 48.2218C44.0359 48.1971 39.5089 48.2152 34.9818 48.2086C33.636 48.2064 32.4837 47.694 31.5059 46.7851C30.1042 45.483 29.2675 43.8254 28.5828 42.0776C27.3338 38.8866 26.6343 35.5419 25.8315 32.2262C25.4553 30.6742 25.0276 29.1342 24.6202 27.5898C24.5939 27.4897 24.5425 27.3962 24.4835 27.2524L24.1679 27.5488C22.4026 29.3026 20.8478 31.2353 19.4566 33.2899C19.0776 33.8499 18.9502 34.5882 18.7385 35.2537C17.9598 37.6982 17.25 40.1663 16.4067 42.5879C15.5989 44.9077 14.1508 46.7529 11.8873 47.8433C10.5748 48.4796 9.14061 48.8256 7.68237 48.8578C5.50581 48.9059 3.32816 48.9114 1.15105 48.9311C0.630421 48.936 0.606359 48.8933 0.741984 48.3896C1.6755 44.9236 2.85839 41.5461 4.34042 38.2768C5.86839 34.9043 7.66815 31.6881 9.9355 28.7508C11.4793 26.7509 13.1845 24.9057 15.3184 23.5107C16.4007 22.8036 17.5513 22.2446 18.8605 22.0975C19.076 22.0729 19.2942 22.0576 19.5107 22.0576C24.1471 22.0554 28.7835 22.1025 33.4194 22.0363C35.906 22.0007 37.7064 23.0507 39.0544 25.0523C39.8928 26.297 40.4927 27.656 40.9975 29.0598C42.0152 31.8915 42.6479 34.8277 43.3627 37.7431C43.7718 39.4116 44.2273 41.0686 44.6637 42.7306C44.6965 42.8553 44.7496 42.9745 44.7939 43.0959L44.9027 43.0926Z" stroke="#3E5772" stroke-width="2"/>
</g>
</g>
</g>
<defs>
<clipPath id="clip0_2769_1768">
<rect width="70" height="69" fill="white" transform="translate(0 0.200073)"/>
</clipPath>
<clipPath id="clip1_2769_1768">
<rect width="1920" height="901" fill="white" transform="translate(0 0.200073)"/>
</clipPath>
<clipPath id="clip2_2769_1768">
<rect width="70" height="70" fill="white" transform="translate(0 0.200073)"/>
</clipPath>
</defs>
</svg>
