<svg width="70" height="70" viewBox="0 0 70 70" fill="none" xmlns="http://www.w3.org/2000/svg">
<g clip-path="url(#clip0_2774_2029)">
<g clip-path="url(#clip1_2774_2029)">
<path d="M12.6327 49.0511C12.6967 49.4889 12.3936 49.8956 11.9559 49.9596C11.5181 50.0236 11.1114 49.7206 11.0474 49.2829C10.9834 48.8451 11.2865 48.4383 11.7242 48.3744C12.1619 48.3104 12.5687 48.6134 12.6327 49.0511ZM62.4756 50.767L59.5915 53.7392C59.1583 54.1856 58.5811 54.4098 58.0034 54.4098C57.448 54.4098 56.892 54.2026 56.4628 53.7861L51.3441 48.8193C51.192 48.9735 51.0248 49.1094 50.8423 49.2218L36.3296 58.1581C35.3132 58.7839 34.2014 59.1007 33.0508 59.1007C32.482 59.1007 31.9039 59.0233 31.3228 58.8675L21.1525 56.1425L20.0162 56.7985L20.6081 57.8444C20.8796 58.3239 20.9477 58.8816 20.7999 59.4147C20.6521 59.9479 20.3067 60.3909 19.8271 60.6622L17.5834 61.9321C17.2697 62.1097 16.9225 62.2002 16.5706 62.2002C16.3846 62.2002 16.1974 62.1749 16.0131 62.1237C15.4799 61.976 15.0369 61.6305 14.7654 61.151L8.16869 49.4954C7.60714 48.5032 7.95758 47.2391 8.94969 46.6775L11.1935 45.4076C11.6731 45.1363 12.2308 45.0682 12.7639 45.2159C13.297 45.3636 13.7401 45.7091 14.0115 46.1886L14.4826 47.021L20.2744 43.6677C21.8493 42.7559 23.7446 41.9161 25.8594 42.6022C26.3707 42.768 26.9701 42.9847 27.6047 43.2142C29.4211 43.8709 31.6818 44.6881 33.9652 45.1C34.0046 45.1071 34.0437 45.1169 34.0818 45.1293C35.7397 45.6668 36.6989 47.3558 36.2652 48.9745C36.2163 49.1568 36.1555 49.3295 36.0833 49.4923C36.35 49.4007 36.6104 49.2803 36.8678 49.1304L44.8648 44.4726C45.9431 43.8447 46.9425 43.4374 47.8482 43.2558L44.6991 40.2C42.0955 42.202 38.8386 43.3943 35.3079 43.3943C27.0336 43.3943 20.2599 36.8504 19.8882 28.6664H8.79166C8.53904 28.6664 8.29833 28.5591 8.12951 28.3713C7.96069 28.1834 7.87957 27.9326 7.9065 27.6814C8.35821 23.4596 11.2093 20.0439 15.0227 18.72C13.6114 17.6503 12.6978 15.9569 12.6978 14.0535C12.6978 10.826 15.3235 8.2002 18.5511 8.2002C21.7786 8.2002 24.4044 10.826 24.4044 14.0535C24.4044 15.9583 23.4893 17.6532 22.0761 18.7228C22.3052 18.8023 22.5314 18.89 22.7544 18.9851C25.5577 15.0743 30.1402 12.5212 35.3081 12.5212C40.5331 12.5212 45.1594 15.1311 47.9537 19.1153C48.2708 18.9686 48.595 18.8377 48.9249 18.7231C47.5114 17.6535 46.5961 15.9587 46.5961 14.0536C46.5961 10.8261 49.2219 8.20031 52.4494 8.20031C55.6769 8.20031 58.3024 10.8261 58.3024 14.0535C58.3024 15.9568 57.3888 17.6503 55.9776 18.72C59.7907 20.0439 62.6419 23.4595 63.0937 27.6812C63.1206 27.9324 63.0395 28.1832 62.8707 28.3711C62.7019 28.5589 62.4611 28.6663 62.2085 28.6663H50.7276C50.6027 31.4146 49.7559 33.9775 48.3727 36.1702L51.8382 39.533C52.1497 39.3628 52.5002 39.2692 52.8662 39.2638C53.4559 39.253 54.0174 39.4761 54.4405 39.8867L62.4286 47.6381C63.304 48.4881 63.3252 49.8916 62.4756 50.767ZM52.4479 18.1262H52.4493H52.4504C54.6956 18.1256 56.522 16.2987 56.522 14.0535C56.522 11.8077 54.695 9.98076 52.4493 9.98076C50.2035 9.98076 48.3766 11.8078 48.3766 14.0535C48.3766 16.2987 50.2029 18.1255 52.4479 18.1262ZM48.8979 20.6423C49.915 22.524 50.5518 24.6397 50.7066 26.8859H61.1626C60.2708 22.8448 56.6858 19.9074 52.4504 19.9068C52.45 19.9068 52.4496 19.9068 52.4493 19.9068C52.4488 19.9068 52.4484 19.9068 52.4479 19.9068C51.2232 19.9069 50.0121 20.1598 48.8979 20.6423ZM18.5499 18.1262H18.551H18.5524C20.7974 18.1255 22.6237 16.2987 22.6237 14.0535C22.6237 11.8077 20.7968 9.98076 18.551 9.98076C16.3053 9.98087 14.4783 11.8078 14.4783 14.0535C14.4783 16.2989 16.3046 18.1256 18.5499 18.1262ZM9.83752 26.8859H19.9092C20.0676 24.5877 20.7311 22.4264 21.7894 20.5123C20.7627 20.1108 19.6779 19.9069 18.5524 19.9067C18.5519 19.9067 18.5515 19.9067 18.551 19.9067C18.5506 19.9067 18.5503 19.9067 18.5498 19.9067C14.3143 19.9073 10.7292 22.8448 9.83752 26.8859ZM35.3079 41.6138C42.8378 41.6138 48.9638 35.4878 48.9638 27.9578C48.9638 20.4278 42.8378 14.3017 35.3079 14.3017C27.7779 14.3017 21.6519 20.4278 21.6519 27.9578C21.6519 35.4878 27.7779 41.6138 35.3079 41.6138ZM46.0513 39.031L49.2118 42.0978L50.5273 40.742L47.3251 37.6347C46.929 38.1258 46.5035 38.5921 46.0513 39.031ZM19.0586 58.7215L12.4618 47.0658C12.4098 46.9736 12.3102 46.9212 12.2091 46.9212C12.1616 46.9212 12.1139 46.9328 12.0705 46.9574L9.82661 48.2272C9.69118 48.3039 9.64143 48.4831 9.71811 48.6186L16.3148 60.2744C16.3648 60.363 16.445 60.3964 16.4884 60.4084C16.5318 60.4203 16.6176 60.433 16.706 60.3829L18.9499 59.1129C19.0384 59.0628 19.0717 58.9827 19.0838 58.9394C19.096 58.8959 19.1087 58.8101 19.0586 58.7215ZM50.0662 47.5793L48.4745 46.0348C48.1973 45.7658 48.0014 45.4354 47.8955 45.0735C47.2587 45.2436 46.5365 45.5595 45.7609 46.0111L37.7639 50.6689C36.8179 51.2198 35.8194 51.4923 34.736 51.4923C34.3708 51.4923 33.9961 51.4614 33.6103 51.3996L32.6155 51.2379C32.6094 51.2369 32.6035 51.2352 32.5973 51.234C32.5915 51.2329 32.5859 51.2326 32.5801 51.2314C31.3318 50.9762 30.1758 50.646 28.9517 50.2965C28.3962 50.1378 27.8219 49.9737 27.2375 49.8172C26.7625 49.6899 26.4808 49.2018 26.608 48.7268C26.7353 48.2518 27.2234 47.9703 27.6983 48.0973C28.2968 48.2576 28.8784 48.4238 29.4408 48.5843C30.6178 48.9204 31.7303 49.2378 32.8972 49.4784C33.7915 49.5802 34.3465 49.2562 34.5456 48.5135C34.7329 47.8147 34.3207 47.1043 33.5835 46.8401C31.1757 46.3983 28.862 45.5617 26.9996 44.8883C26.3525 44.6543 25.7936 44.4523 25.3103 44.2956C23.8641 43.8264 22.4643 44.4571 21.1668 45.2084L15.3599 48.5704L19.1395 55.2487L20.582 54.4159C20.7863 54.2978 21.0294 54.2659 21.2575 54.327L31.7841 57.1475C33.0743 57.4934 34.2895 57.3232 35.3964 56.6417L49.9091 47.7054C49.964 47.6716 50.0166 47.6286 50.0662 47.5793ZM61.1885 48.916L53.2004 41.1646C53.0935 41.0608 52.9684 41.0442 52.8994 41.0442C52.8972 41.0442 52.8951 41.0442 52.8931 41.0442C52.8256 41.0452 52.6964 41.0634 52.5894 41.1738L49.7053 44.146C49.5982 44.2564 49.584 44.386 49.585 44.4534C49.586 44.5209 49.6041 44.6501 49.7145 44.7571L51.8044 46.785C51.8068 46.7873 51.8093 46.7898 51.8117 46.7921L57.7028 52.5085C57.8708 52.6716 58.1507 52.6675 58.3139 52.4994L61.1979 49.5272C61.3609 49.359 61.3566 49.0791 61.1885 48.916ZM46.4837 27.9578C46.4837 34.1202 41.4702 39.1336 35.3079 39.1336C29.1456 39.1336 24.1321 34.1202 24.1321 27.9578C24.1321 21.7953 29.1455 16.7819 35.3079 16.7819C41.4703 16.7819 46.4837 21.7955 46.4837 27.9578ZM25.9127 27.9578C25.9127 30.0062 26.5736 31.902 27.6905 33.4476C28.4587 31.2526 30.1375 29.5157 32.2589 28.654C31.3545 27.8266 30.7862 26.6376 30.7862 25.3181C30.7862 22.8247 32.8147 20.7962 35.308 20.7962C37.8014 20.7962 39.8299 22.8247 39.8299 25.3181C39.8299 26.6376 39.2615 27.8267 38.3571 28.654C40.4784 29.5157 42.1572 31.2526 42.9253 33.4475C44.0422 31.9019 44.7031 30.0061 44.7031 27.9578C44.7031 22.7772 40.4884 18.5625 35.3079 18.5625C30.1274 18.5625 25.9127 22.7772 25.9127 27.9578ZM38.0493 25.3182C38.0493 23.8066 36.8196 22.5769 35.308 22.5769C33.7964 22.5769 32.5667 23.8066 32.5667 25.3182C32.5667 26.8298 33.7964 28.0595 35.308 28.0595C36.8195 28.0594 38.0493 26.8297 38.0493 25.3182ZM35.3078 37.353C37.6783 37.353 39.8449 36.4687 41.4996 35.0151C40.9692 32.0357 38.3824 29.8399 35.3078 29.8399C32.2331 29.8399 29.6463 32.0357 29.116 35.0151C30.7709 36.4687 32.9374 37.353 35.3078 37.353Z" fill="#476E6B"/>
</g>
</g>
<defs>
<clipPath id="clip0_2774_2029">
<rect width="70" height="69" fill="white" transform="translate(0 0.200195)"/>
</clipPath>
<clipPath id="clip1_2774_2029">
<rect width="1920" height="901" fill="white" transform="translate(0 0.200195)"/>
</clipPath>
</defs>
</svg>
