<svg width="70" height="70" viewBox="0 0 70 70" fill="none" xmlns="http://www.w3.org/2000/svg">
<path d="M31.7188 17.7001C32.9269 17.7001 33.9062 16.7207 33.9062 15.5126C33.9062 14.3045 32.9269 13.3251 31.7188 13.3251C30.5106 13.3251 29.5312 14.3045 29.5312 15.5126C29.5312 16.7207 30.5106 17.7001 31.7188 17.7001Z" fill="#68589A"/>
<path d="M56.875 23.1688H50.3125V13.3251C50.3125 10.3096 47.8592 7.85632 44.8438 7.85632H29.5312C26.5158 7.85632 24.0625 10.3096 24.0625 13.3251V20.9813H13.125C10.1095 20.9813 7.65625 23.4346 7.65625 26.4501V41.7626C7.65625 44.778 10.1095 47.2313 13.125 47.2313H19.6875V57.0751C19.6875 60.0905 22.1408 62.5438 25.1562 62.5438H40.4688C43.4842 62.5438 45.9375 60.0905 45.9375 57.0751V49.4188H56.875C59.8905 49.4188 62.3438 46.9655 62.3438 43.9501V28.6376C62.3438 25.6221 59.8905 23.1688 56.875 23.1688ZM9.84375 41.7626V26.4501C9.84375 24.641 11.3159 23.1688 13.125 23.1688H37.1875C38.6345 23.1688 38.6356 20.9813 37.1875 20.9813H26.25V13.3251C26.25 11.516 27.7222 10.0438 29.5312 10.0438H44.8438C46.6528 10.0438 48.125 11.516 48.125 13.3251V30.8251C48.125 32.6341 46.6528 34.1063 44.8438 34.1063H25.1562C22.1408 34.1063 19.6875 36.5596 19.6875 39.5751V45.0438H13.125C11.3159 45.0438 9.84375 43.5716 9.84375 41.7626ZM60.1562 43.9501C60.1562 45.7591 58.6841 47.2313 56.875 47.2313H32.8125C31.3655 47.2313 31.3644 49.4188 32.8125 49.4188H43.75V57.0751C43.75 58.8841 42.2778 60.3563 40.4688 60.3563H25.1562C23.3472 60.3563 21.875 58.8841 21.875 57.0751V46.1376V39.5751C21.875 37.766 23.3472 36.2938 25.1562 36.2938H44.8438C47.8592 36.2938 50.3125 33.8405 50.3125 30.8251V25.3563H56.875C58.6841 25.3563 60.1562 26.8285 60.1562 28.6376V43.9501Z" fill="#68589A"/>
<path d="M38.2812 57.0751C39.4894 57.0751 40.4688 56.0957 40.4688 54.8876C40.4688 53.6795 39.4894 52.7001 38.2812 52.7001C37.0731 52.7001 36.0938 53.6795 36.0938 54.8876C36.0938 56.0957 37.0731 57.0751 38.2812 57.0751Z" fill="#68589A"/>
</svg>
