<svg width="70" height="70" viewBox="0 0 70 70" fill="none" xmlns="http://www.w3.org/2000/svg">
<g clip-path="url(#clip0_2769_1784)">
<g clip-path="url(#clip1_2769_1784)">
<path d="M46.2696 36.3751H18.3423L10.6706 30.2371C10.1717 29.8396 9.5059 29.7639 8.93087 30.0395C8.35678 30.3155 8 30.8832 8 31.5205V57.7394C8 60.199 10.0012 62.2001 12.4609 62.2001H46.2697C48.7294 62.2001 50.7306 60.199 50.7306 57.7394V40.8357C50.7306 38.3762 48.7293 36.3751 46.2696 36.3751ZM49.3218 57.7394C49.3218 59.4222 47.9525 60.7914 46.2696 60.7914H12.4608C10.7779 60.7914 9.40861 59.4222 9.40861 57.7394V31.5205C9.40861 31.3922 9.4921 31.333 9.54159 31.3091C9.56638 31.2972 9.60301 31.2839 9.64705 31.2839C9.69016 31.2839 9.73965 31.2972 9.79008 31.337L17.6553 37.6291C17.78 37.729 17.9359 37.7837 18.0956 37.7837H46.2696C47.9525 37.7837 49.3218 39.1529 49.3218 40.8357V57.7394ZM29.9953 41.4599C29.7568 40.983 28.9736 40.983 28.7351 41.4599L21.2221 56.4853C21.0479 56.8334 21.189 57.2561 21.5375 57.4303C21.886 57.605 22.3088 57.4634 22.4822 57.1154L24.6385 52.803C24.6494 52.8034 24.6585 52.8093 24.6695 52.8093H34.0609C34.0719 52.8093 34.081 52.8035 34.0919 52.803L36.2482 57.1154C36.372 57.3621 36.6206 57.5047 36.8792 57.5047C36.9847 57.5047 37.092 57.4809 37.1929 57.4304C37.5414 57.2562 37.6826 56.8335 37.5083 56.4854L29.9953 41.4599ZM25.3397 51.4005L29.3652 43.3499L33.3907 51.4005H25.3397ZM57.5392 8.20007H23.7304C21.2707 8.20007 19.2695 10.2012 19.2695 12.6608V29.5644C19.2695 32.024 21.2707 34.0251 23.7304 34.0251H51.6577L59.3294 40.1631C59.6293 40.4025 59.9888 40.5253 60.3538 40.5249C60.5959 40.5249 60.8399 40.4708 61.0691 40.3608C61.6432 40.0848 62 39.5171 62 38.8797V12.6608C62 10.2012 59.9989 8.20007 57.5392 8.20007ZM60.5914 38.8796C60.5914 39.008 60.5079 39.0672 60.4584 39.091C60.4098 39.1144 60.3117 39.1438 60.2099 39.063L52.3447 32.7709C52.22 32.671 52.0641 32.6164 51.9044 32.6164H23.7304C22.0475 32.6164 20.6782 31.2472 20.6782 29.5643V12.6608C20.6782 10.9779 22.0475 9.60871 23.7304 9.60871H57.5392C59.2221 9.60871 60.5914 10.9779 60.5914 12.6608V38.8796ZM40.6348 12.8955C36.1033 12.8955 32.4174 16.5817 32.4174 21.1126C32.4174 25.6434 36.1033 29.3296 40.6348 29.3296C42.6469 29.3296 44.4899 28.6003 45.9199 27.3957L47.6499 29.1257C47.7875 29.2632 47.9673 29.332 48.148 29.332C48.3287 29.332 48.5084 29.2632 48.646 29.1257C48.9212 28.8505 48.9212 28.4048 48.646 28.1297L46.916 26.3998C48.122 24.9695 48.8523 23.1257 48.8523 21.1127C48.8523 16.5818 45.1663 12.8955 40.6348 12.8955ZM43.0111 22.4951C42.7359 22.22 42.2902 22.22 42.0151 22.4951C41.7401 22.7703 41.74 23.216 42.0151 23.491L44.9206 26.3964C43.7494 27.3481 42.2584 27.921 40.6349 27.921C36.8802 27.921 33.8262 24.8667 33.8262 21.1126C33.8262 17.3585 36.8802 14.3042 40.6349 14.3042C44.3896 14.3042 47.4436 17.3585 47.4436 21.1126C47.4436 22.7371 46.8701 24.2291 45.9171 25.4007L43.0111 22.4951Z" fill="#4D5D1F"/>
</g>
</g>
<defs>
<clipPath id="clip0_2769_1784">
<rect width="70" height="69" fill="white" transform="translate(0 0.200073)"/>
</clipPath>
<clipPath id="clip1_2769_1784">
<rect width="1920" height="901" fill="white" transform="translate(0 0.200073)"/>
</clipPath>
</defs>
</svg>
