<svg width="48" height="55" viewBox="0 0 48 55" fill="none" xmlns="http://www.w3.org/2000/svg">
<path d="M46.8269 12.6579C44.8066 9.50714 40.4621 8.19825 34.6083 8.9495C34.4015 8.97364 34.1823 9.01009 33.9755 9.03423C33.8904 8.84062 33.8053 8.64654 33.7079 8.45293C31.1889 3.13264 27.7447 0.200073 23.9964 0.200073C20.248 0.200073 16.792 3.13264 14.2848 8.45293C14.1998 8.64654 14.1023 8.84062 14.0172 9.03423C13.7981 8.99826 13.5913 8.97364 13.3845 8.9495C7.51878 8.18594 3.18617 9.50714 1.16581 12.6579C-0.854076 15.8087 -0.233706 20.2802 2.90617 25.2488C3.32023 25.9035 3.77041 26.5577 4.2572 27.2001C3.77041 27.8543 3.32023 28.4967 2.90617 29.1509C-0.233706 34.1194 -0.854076 38.6032 1.16581 41.7422C2.80872 44.3112 5.99756 45.6566 10.2931 45.6566C11.3228 45.6509 12.351 45.5822 13.3721 45.4502C13.5789 45.426 13.7981 45.3896 14.0048 45.3654C14.0904 45.5595 14.1755 45.7531 14.273 45.9472C16.792 51.267 20.2361 54.2001 23.984 54.2001C27.7324 54.2001 31.1889 51.267 33.6955 45.9472C33.7806 45.7531 33.8781 45.5595 33.9632 45.3654C34.1823 45.4019 34.3891 45.426 34.5964 45.4502C35.6165 45.5879 36.6453 45.6566 37.6749 45.6566C41.9709 45.6566 45.1593 44.3112 46.8022 41.7422C48.8226 38.5914 48.2017 34.1194 45.0623 29.1509C44.6483 28.4967 44.1981 27.8424 43.7113 27.2001C44.1981 26.5454 44.6483 25.9035 45.0623 25.2488C48.2383 20.2684 48.8592 15.7964 46.8269 12.6579ZM16.4878 9.483C18.5442 5.12035 21.2824 2.62376 23.9964 2.62376C26.7103 2.62376 29.4485 5.12035 31.505 9.483C31.5064 9.49199 31.5107 9.50051 31.5173 9.50714C28.9322 10.1263 26.4108 10.9822 23.984 12.0638C21.5601 10.977 19.0377 10.1206 16.4512 9.50714C16.4754 9.50714 16.4754 9.49483 16.4878 9.483ZM34.9615 27.2001C34.9619 29.139 34.8564 31.077 34.6449 33.0046C33.1279 34.2236 31.5435 35.3564 29.8987 36.3978C28.0005 37.6115 26.0248 38.7008 23.984 39.6579C21.9475 38.6932 19.9718 37.6044 18.0698 36.3978C16.4269 35.3535 14.8425 34.2207 13.3236 33.0046C12.9015 29.1461 12.9015 25.2535 13.3236 21.3951C16.6037 18.7702 20.1819 16.5373 23.984 14.7422C26.021 15.7065 27.9962 16.7952 29.8987 18.0019C31.5416 19.0462 33.126 20.1789 34.6449 21.3951C34.8564 23.3231 34.9619 25.2606 34.9615 27.2001ZM37.2856 23.6734C38.4774 24.7787 39.5993 25.9565 40.6446 27.2001C39.5993 28.4432 38.4774 29.6209 37.2856 30.7263C37.3588 29.5632 37.3954 28.3878 37.3954 27.2001C37.3954 26.0124 37.3588 24.837 37.2856 23.6734ZM34.1457 36.4465C33.7616 38.5446 33.204 40.6075 32.4786 42.6146C30.5885 42.1896 28.7335 41.6224 26.9295 40.9181C28.3651 40.1668 29.8012 39.3427 31.225 38.4461C32.2233 37.8037 33.1969 37.1372 34.1457 36.4465ZM21.0633 40.9181C19.2625 41.6314 17.4067 42.199 15.5142 42.6146C14.7887 40.6075 14.2311 38.5446 13.847 36.4465C14.784 37.1372 15.7576 37.8037 16.7678 38.4338C18.1915 39.3427 19.6276 40.1668 21.0633 40.9181ZM10.7071 30.7263C9.51537 29.6209 8.39395 28.4432 7.34812 27.2001C8.39395 25.9565 9.51537 24.7787 10.7071 23.6734C10.6339 24.837 10.5973 26.0124 10.5973 27.2001C10.5973 28.3878 10.6339 29.5632 10.7071 30.7263ZM13.847 17.9536C14.2311 15.8551 14.7887 13.7921 15.5142 11.7855C17.4043 12.2101 19.2597 12.7772 21.0633 13.4821C19.6276 14.2333 18.1915 15.0575 16.7678 15.9541C15.7695 16.5964 14.7959 17.2629 13.847 17.9536ZM31.2131 15.9541C29.8012 15.0575 28.3651 14.221 26.9171 13.4821C28.7178 12.7687 30.5737 12.2011 32.4667 11.7855C33.1916 13.7921 33.7492 15.8551 34.1338 17.9536C33.1969 17.2629 32.2233 16.5964 31.2131 15.9541ZM4.96314 23.9522C2.38278 19.8802 1.75005 16.2329 3.21042 13.9545C4.3789 12.1367 6.91029 11.155 10.3297 11.155C11.2453 11.1587 12.1599 11.2198 13.0679 11.3367H13.0921C12.1076 14.1874 11.4226 17.1318 11.048 20.1226C9.17262 21.6805 7.42655 23.387 5.8269 25.2247C5.52266 24.8128 5.23078 24.3887 4.96314 23.9522ZM13.056 43.0511C12.148 43.1685 11.2334 43.2291 10.3178 43.2329C6.89793 43.2329 4.36654 42.2634 3.19853 40.4333C1.73817 38.155 2.3709 34.5076 4.95078 30.4356C5.21842 30.0115 5.51078 29.575 5.81502 29.1509C7.41419 30.989 9.16026 32.695 11.0356 34.2529C11.4107 37.2442 12.0957 40.1886 13.0802 43.0388C13.0802 43.0511 13.0679 43.0511 13.056 43.0511ZM31.505 44.9171C29.4485 49.2798 26.7103 51.7764 23.9964 51.7764C21.2824 51.7764 18.5442 49.2798 16.4878 44.9171C16.4863 44.9082 16.482 44.8996 16.4754 44.893C19.0605 44.2738 21.5819 43.418 24.0087 42.3358C26.4327 43.4232 28.955 44.2795 31.5416 44.893C31.5173 44.893 31.5173 44.9048 31.505 44.9171ZM43.0296 30.4479C45.61 34.5194 46.2427 38.1673 44.7823 40.4456C43.322 42.7235 39.7319 43.6812 34.9367 43.0511H34.9125C35.897 40.2004 36.5825 37.256 36.9571 34.2652C38.8325 32.7073 40.5785 31.0008 42.1777 29.1632C42.4701 29.5873 42.762 30.0115 43.0296 30.4479ZM36.9447 20.1349C36.5701 17.1437 35.8851 14.1992 34.9006 11.349H34.9249C39.7195 10.7308 43.3096 11.6761 44.77 13.9545C46.2303 16.2329 45.5976 19.8802 43.0177 23.9522C42.7501 24.3764 42.4577 24.8128 42.1535 25.237C40.5614 23.396 38.8192 21.6895 36.9447 20.1349Z" fill="#467D50"/>
<path d="M24 22.2001C21.2386 22.2001 19 24.4388 19 27.2003C19 29.9618 21.2386 32.2001 24 32.2001C26.7614 32.2001 29 29.9618 29 27.2003C28.998 24.4393 26.7604 22.202 24 22.2001ZM24 29.6748C22.6334 29.6748 21.5252 28.567 21.5252 27.2003C21.5252 25.8336 22.6334 24.7254 24 24.7254C25.3666 24.7254 26.4748 25.8336 26.4748 27.2003C26.4724 28.566 25.3657 29.6728 24 29.6748Z" fill="#467D50"/>
</svg>
