<svg width="70" height="70" viewBox="0 0 70 70" fill="none" xmlns="http://www.w3.org/2000/svg">
<path d="M61.219 7.9021H8.78098C7.61282 7.90334 6.49286 8.36794 5.66685 9.19395C4.84084 10.02 4.37624 11.1399 4.375 12.3081V46.2795C4.37625 47.4476 4.84085 48.5676 5.66686 49.3936C6.49287 50.2196 7.61282 50.6842 8.78098 50.6854H30.1972C30.3314 53.2773 25.9844 57.8618 22.519 60.5383C22.3385 60.6778 22.2061 60.8704 22.1404 61.0889C22.0747 61.3075 22.079 61.5411 22.1527 61.7571C22.2264 61.9731 22.3658 62.1606 22.5514 62.2934C22.737 62.4262 22.9595 62.4976 23.1877 62.4977H46.8123C47.0421 62.4934 47.2648 62.4172 47.4491 62.2799C47.6334 62.1425 47.7701 61.9509 47.8399 61.732C47.9098 61.513 47.9093 61.2776 47.8386 61.0589C47.7679 60.8402 47.6305 60.6492 47.4456 60.5126C47.3727 60.4606 40.6077 55.5858 40.0522 50.6854H61.219C62.3872 50.6841 63.5071 50.2196 64.3331 49.3936C65.1591 48.5676 65.6237 47.4476 65.625 46.2795V12.3081C65.6238 11.1399 65.1592 10.02 64.3331 9.19395C63.5071 8.36794 62.3872 7.90334 61.219 7.9021ZM8.78098 10.0896H61.219C61.8072 10.0903 62.3711 10.3242 62.787 10.7401C63.2029 11.156 63.4368 11.7199 63.4375 12.3081V41.1151H6.5625V12.3081C6.56317 11.7199 6.79712 11.156 7.21302 10.7401C7.62891 10.3242 8.1928 10.0903 8.78098 10.0896ZM43.7628 60.3102H26.1763C28.7489 57.9689 32.4355 54.0197 32.3832 50.6854H37.8649C38.197 54.5568 41.4232 58.1719 43.7628 60.3102ZM61.2191 48.4979H8.78098C8.19281 48.4973 7.62892 48.2633 7.21302 47.8474C6.79712 47.4315 6.56317 46.8676 6.5625 46.2795V43.3026H63.4375V46.2795C63.4368 46.8676 63.2029 47.4315 62.787 47.8474C62.3711 48.2633 61.8072 48.4973 61.2191 48.4979Z" fill="#C84E5F"/>
<path d="M37.4235 44.4978H32.2474C31.961 44.5034 31.6882 44.6211 31.4877 44.8256C31.2871 45.0301 31.1748 45.3051 31.1748 45.5916C31.1748 45.878 31.2872 46.153 31.4877 46.3575C31.6883 46.562 31.9611 46.6797 32.2475 46.6853H37.4235C37.7099 46.6797 37.9827 46.562 38.1832 46.3575C38.3838 46.153 38.4961 45.878 38.4961 45.5916C38.4961 45.3051 38.3838 45.0301 38.1832 44.8256C37.9827 44.6211 37.7099 44.5034 37.4235 44.4978Z" fill="#C84E5F"/>
<path d="M16.9096 32.3214C17.5148 32.3786 18.1253 32.3095 18.7024 32.1184C19.2794 31.9272 19.8105 31.6182 20.2618 31.211C20.7131 30.8037 21.0749 30.3071 21.3242 29.7527C21.5734 29.1982 21.7047 28.598 21.7097 27.9901V20.9871C21.7097 20.697 21.5945 20.4188 21.3893 20.2137C21.1842 20.0085 20.906 19.8933 20.6159 19.8933C20.3259 19.8933 20.0477 20.0085 19.8425 20.2137C19.6374 20.4188 19.5222 20.697 19.5222 20.9871V27.9901C19.5216 28.5585 19.2955 29.1034 18.8936 29.5053C18.4917 29.9072 17.9468 30.1333 17.3784 30.1339C17.0636 30.1886 16.7406 30.1749 16.4315 30.0936C16.1225 30.0123 15.8346 29.8653 15.5874 29.6626C15.3403 29.46 15.1397 29.2065 14.9994 28.9193C14.8591 28.6322 14.7824 28.3181 14.7744 27.9986V21.0304C14.7744 20.7403 14.6592 20.4621 14.4541 20.257C14.2489 20.0518 13.9707 19.9366 13.6807 19.9366C13.3906 19.9366 13.1124 20.0518 12.9073 20.257C12.7021 20.4621 12.5869 20.7403 12.5869 21.0304V27.9987C12.5881 29.1448 13.044 30.2436 13.8544 31.054C14.6648 31.8644 15.7635 32.3202 16.9096 32.3214Z" fill="#C84E5F"/>
<path d="M23.506 32.113C23.7409 32.2832 24.0337 32.3532 24.3201 32.3075C24.6065 32.2618 24.8631 32.1043 25.0334 31.8695L27.7035 28.1877L30.1774 31.8407C30.3427 32.0745 30.593 32.2343 30.8747 32.2856C31.1564 32.3369 31.447 32.2758 31.6841 32.1153C31.9212 31.9548 32.086 31.7077 32.1429 31.4271C32.1999 31.1465 32.1446 30.8547 31.9889 30.6144L29.0697 26.3039L32.46 21.629C32.6293 21.3941 32.6986 21.1017 32.6526 20.8158C32.6066 20.5299 32.4492 20.2739 32.2148 20.104C31.9803 19.934 31.6881 19.864 31.4021 19.9092C31.1161 19.9544 30.8597 20.1112 30.6891 20.3451L27.7649 24.3772L25.0537 20.3739C24.8886 20.1398 24.6382 19.9798 24.3564 19.9283C24.0745 19.8768 23.7837 19.9379 23.5465 20.0985C23.3092 20.2591 23.1445 20.5064 23.0876 20.7872C23.0307 21.068 23.0862 21.3599 23.2422 21.6002L26.3987 26.261L23.2625 30.5856C23.1782 30.7019 23.1176 30.8336 23.0842 30.9733C23.0508 31.113 23.0452 31.2579 23.0678 31.3998C23.0905 31.5416 23.1408 31.6776 23.216 31.8C23.2911 31.9224 23.3897 32.0287 23.506 32.113Z" fill="#C84E5F"/>
<path d="M33.3196 35.554C33.5814 35.6785 33.882 35.6942 34.1553 35.5975C34.4286 35.5007 34.6524 35.2996 34.7776 35.0381L42.7821 18.2719C42.907 18.0101 42.9228 17.7095 42.8261 17.4361C42.7293 17.1626 42.5279 16.9388 42.2662 16.8139C42.0044 16.689 41.7037 16.6732 41.4303 16.7699C41.1569 16.8667 40.9331 17.0681 40.8082 17.3298L32.8037 34.096C32.7418 34.2256 32.7059 34.3661 32.6983 34.5096C32.6907 34.653 32.7114 34.7966 32.7594 34.932C32.8073 35.0674 32.8814 35.192 32.9776 35.2988C33.0737 35.4055 33.1899 35.4922 33.3196 35.554Z" fill="#C84E5F"/>
<path d="M48.4218 32.3214C49.027 32.3786 49.6376 32.3095 50.2147 32.1184C50.7918 31.9273 51.323 31.6183 51.7744 31.2111C52.2258 30.8038 52.5877 30.3072 52.837 29.7528C53.0864 29.1983 53.2178 28.5981 53.2229 27.9901V20.9871C53.2229 20.697 53.1077 20.4188 52.9026 20.2137C52.6975 20.0085 52.4193 19.8933 52.1292 19.8933C51.8391 19.8933 51.5609 20.0085 51.3558 20.2137C51.1507 20.4188 51.0354 20.697 51.0354 20.9871V27.9901C51.0346 28.5586 50.8083 29.1035 50.4063 29.5054C50.0042 29.9073 49.4591 30.1333 48.8907 30.1339C48.5758 30.1886 48.2528 30.1749 47.9438 30.0936C47.6347 30.0123 47.3468 29.8653 47.0996 29.6626C46.8525 29.46 46.6519 29.2065 46.5116 28.9193C46.3713 28.6322 46.2946 28.3181 46.2866 27.9986V21.0304C46.2866 20.7403 46.1714 20.4621 45.9663 20.257C45.7612 20.0518 45.483 19.9366 45.1929 19.9366C44.9028 19.9366 44.6246 20.0518 44.4195 20.257C44.2144 20.4621 44.0991 20.7403 44.0991 21.0304V27.9987C44.1003 29.1448 44.5562 30.2436 45.3666 31.054C46.1769 31.8643 47.2757 32.3201 48.4218 32.3214Z" fill="#C84E5F"/>
<path d="M56.3198 32.3214C56.4635 32.3214 56.6057 32.2932 56.7384 32.2382C56.8711 32.1832 56.9917 32.1027 57.0933 32.0011C57.1949 31.8995 57.2754 31.779 57.3304 31.6462C57.3853 31.5135 57.4136 31.3713 57.4136 31.2276V20.9871C57.4136 20.697 57.2983 20.4188 57.0932 20.2137C56.8881 20.0085 56.6099 19.8933 56.3198 19.8933C56.0297 19.8933 55.7515 20.0085 55.5464 20.2137C55.3413 20.4188 55.2261 20.697 55.2261 20.9871V31.2276C55.226 31.3713 55.2543 31.5135 55.3093 31.6462C55.3642 31.779 55.4448 31.8995 55.5463 32.0011C55.6479 32.1027 55.7685 32.1832 55.9012 32.2382C56.0339 32.2932 56.1762 32.3214 56.3198 32.3214Z" fill="#C84E5F"/>
</svg>
