<svg width="70" height="70" viewBox="0 0 70 70" fill="none" xmlns="http://www.w3.org/2000/svg">
<g clip-path="url(#clip0_2774_2142)">
<g clip-path="url(#clip1_2774_2142)">
<path d="M57.6452 8.2002H12.3548C11.2003 8.20158 10.0934 8.66083 9.27703 9.47723C8.46064 10.2936 8.00138 11.4005 8 12.555V45.6518C8.00138 46.8064 8.46064 47.9132 9.27703 48.7296C10.0934 49.546 11.2003 50.0053 12.3548 50.0066H27.7326L25.6423 56.9744H23.6774C23.4464 56.9744 23.2249 57.0662 23.0616 57.2295C22.8982 57.3928 22.8065 57.6144 22.8065 57.8454V61.3292C22.8065 61.5602 22.8982 61.7818 23.0616 61.9451C23.2249 62.1084 23.4464 62.2002 23.6774 62.2002H46.3226C46.5536 62.2002 46.7751 62.1084 46.9384 61.9451C47.1018 61.7818 47.1936 61.5602 47.1936 61.3292V57.8454C47.1936 57.6144 47.1018 57.3928 46.9384 57.2295C46.7751 57.0662 46.5536 56.9744 46.3226 56.9744H44.3577L42.2674 50.0066H57.6452C58.7997 50.0053 59.9066 49.546 60.723 48.7296C61.5394 47.9132 61.9986 46.8064 62 45.6518V12.555C61.9986 11.4005 61.5394 10.2936 60.723 9.47723C59.9066 8.66083 58.7997 8.20158 57.6452 8.2002ZM60.2581 12.555V30.8454H25.4194V9.94213H57.6452C58.3381 9.94213 59.0027 10.2174 59.4928 10.7074C59.9828 11.1974 60.2581 11.862 60.2581 12.555ZM25.4194 32.5873H60.2581V39.555H25.4194V32.5873ZM12.3548 9.94213H23.6774V39.555H9.74194V12.555C9.74194 11.862 10.0172 11.1974 10.5072 10.7074C10.9973 10.2174 11.6619 9.94213 12.3548 9.94213ZM45.4516 60.4583H24.5484V58.7163H45.4516V60.4583ZM42.5391 56.9744H27.4609L29.5512 50.0066H40.4488L42.5391 56.9744ZM57.6452 48.2647H12.3548C11.6619 48.2647 10.9973 47.9894 10.5072 47.4994C10.0172 47.0094 9.74194 46.3448 9.74194 45.6518V41.297H60.2581V45.6518C60.2581 46.3448 59.9828 47.0094 59.4928 47.4994C59.0027 47.9894 58.3381 48.2647 57.6452 48.2647Z" fill="black"/>
<path d="M35.0001 42.168C34.4833 42.168 33.9782 42.3212 33.5485 42.6083C33.1188 42.8954 32.7839 43.3035 32.5861 43.781C32.3883 44.2584 32.3366 44.7838 32.4374 45.2906C32.5382 45.7975 32.7871 46.2631 33.1525 46.6285C33.5179 46.9939 33.9835 47.2427 34.4904 47.3436C34.9972 47.4444 35.5226 47.3926 36 47.1949C36.4775 46.9971 36.8856 46.6622 37.1727 46.2325C37.4598 45.8028 37.613 45.2977 37.613 44.7809C37.613 44.0879 37.3377 43.4233 36.8477 42.9333C36.3577 42.4433 35.6931 42.168 35.0001 42.168ZM35.0001 45.6518C34.8279 45.6518 34.6595 45.6008 34.5162 45.5051C34.373 45.4094 34.2614 45.2733 34.1954 45.1142C34.1295 44.955 34.1123 44.7799 34.1459 44.611C34.1795 44.442 34.2624 44.2868 34.3842 44.165C34.5061 44.0432 34.6612 43.9602 34.8302 43.9266C34.9991 43.893 35.1743 43.9103 35.3334 43.9762C35.4926 44.0421 35.6286 44.1538 35.7243 44.297C35.82 44.4402 35.8711 44.6086 35.8711 44.7809C35.8711 45.0119 35.7793 45.2334 35.616 45.3967C35.4526 45.5601 35.2311 45.6518 35.0001 45.6518Z" fill="black"/>
<path d="M12.3549 16.9099H15.8387C16.0697 16.9099 16.2913 16.8181 16.4546 16.6548C16.6179 16.4914 16.7097 16.2699 16.7097 16.0389V12.555C16.7097 12.3241 16.6179 12.1025 16.4546 11.9392C16.2913 11.7758 16.0697 11.6841 15.8387 11.6841H12.3549C12.1239 11.6841 11.9023 11.7758 11.739 11.9392C11.5756 12.1025 11.4839 12.3241 11.4839 12.555V16.0389C11.4839 16.2699 11.5756 16.4914 11.739 16.6548C11.9023 16.8181 12.1239 16.9099 12.3549 16.9099ZM13.2258 13.426H14.9678V15.168H13.2258V13.426Z" fill="black"/>
<path d="M12.3549 23.8777H15.8387C16.0697 23.8777 16.2913 23.7859 16.4546 23.6226C16.6179 23.4592 16.7097 23.2377 16.7097 23.0067V19.5228C16.7097 19.2918 16.6179 19.0703 16.4546 18.907C16.2913 18.7436 16.0697 18.6519 15.8387 18.6519H12.3549C12.1239 18.6519 11.9023 18.7436 11.739 18.907C11.5756 19.0703 11.4839 19.2918 11.4839 19.5228V23.0067C11.4839 23.2377 11.5756 23.4592 11.739 23.6226C11.9023 23.7859 12.1239 23.8777 12.3549 23.8777ZM13.2258 20.3938H14.9678V22.1357H13.2258V20.3938Z" fill="black"/>
<path d="M12.3549 30.8454H15.8387C16.0697 30.8454 16.2913 30.7537 16.4546 30.5903C16.6179 30.427 16.7097 30.2055 16.7097 29.9745V26.4906C16.7097 26.2596 16.6179 26.0381 16.4546 25.8747C16.2913 25.7114 16.0697 25.6196 15.8387 25.6196H12.3549C12.1239 25.6196 11.9023 25.7114 11.739 25.8747C11.5756 26.0381 11.4839 26.2596 11.4839 26.4906V29.9745C11.4839 30.2055 11.5756 30.427 11.739 30.5903C11.9023 30.7537 12.1239 30.8454 12.3549 30.8454ZM13.2258 27.3616H14.9678V29.1035H13.2258V27.3616Z" fill="black"/>
<path d="M12.3549 37.8132H15.8387C16.0697 37.8132 16.2913 37.7214 16.4546 37.5581C16.6179 37.3948 16.7097 37.1732 16.7097 36.9422V33.4584C16.7097 33.2274 16.6179 33.0058 16.4546 32.8425C16.2913 32.6792 16.0697 32.5874 15.8387 32.5874H12.3549C12.1239 32.5874 11.9023 32.6792 11.739 32.8425C11.5756 33.0058 11.4839 33.2274 11.4839 33.4584V36.9422C11.4839 37.1732 11.5756 37.3948 11.739 37.5581C11.9023 37.7214 12.1239 37.8132 12.3549 37.8132ZM13.2258 34.3293H14.9678V36.0713H13.2258V34.3293Z" fill="black"/>
<path d="M18.4517 11.6841H21.9355V13.426H18.4517V11.6841Z" fill="black"/>
<path d="M18.4517 15.168H21.9355V16.9099H18.4517V15.168Z" fill="black"/>
<path d="M18.4517 18.6519H21.9355V20.3938H18.4517V18.6519Z" fill="black"/>
<path d="M18.4517 22.1357H21.9355V23.8777H18.4517V22.1357Z" fill="black"/>
<path d="M18.4517 25.6196H21.9355V27.3616H18.4517V25.6196Z" fill="black"/>
<path d="M18.4517 29.1035H21.9355V30.8455H18.4517V29.1035Z" fill="black"/>
<path d="M18.4517 32.5874H21.9355V34.3293H18.4517V32.5874Z" fill="black"/>
<path d="M18.4517 36.071H21.9355V37.813H18.4517V36.071Z" fill="black"/>
<path d="M31.516 29.1034H55.9031C56.1341 29.1034 56.3556 29.0117 56.519 28.8483C56.6823 28.685 56.7741 28.4635 56.7741 28.2325V12.555C56.7741 12.3241 56.6823 12.1025 56.519 11.9392C56.3556 11.7758 56.1341 11.6841 55.9031 11.6841H31.516C31.285 11.6841 31.0635 11.7758 30.9001 11.9392C30.7368 12.1025 30.645 12.3241 30.645 12.555V28.2325C30.645 28.4635 30.7368 28.685 30.9001 28.8483C31.0635 29.0117 31.285 29.1034 31.516 29.1034ZM32.387 13.426H55.0321V27.3615H32.387V13.426Z" fill="black"/>
<path d="M47.583 19.6143L40.6153 16.1304C40.4825 16.0641 40.3349 16.0327 40.1865 16.0395C40.0382 16.0462 39.8941 16.0907 39.7678 16.1688C39.6415 16.2469 39.5373 16.356 39.4651 16.4857C39.3928 16.6154 39.3549 16.7615 39.355 16.9099V24.7487C39.355 24.9041 39.3966 25.0568 39.4755 25.1907C39.5544 25.3247 39.6677 25.4351 39.8037 25.5104C39.9397 25.5858 40.0934 25.6234 40.2488 25.6193C40.4042 25.6152 40.5557 25.5696 40.6876 25.4872L47.6553 21.1324C47.7866 21.0504 47.8937 20.9349 47.9656 20.7978C48.0374 20.6606 48.0714 20.5068 48.064 20.3522C48.0567 20.1975 48.0082 20.0476 47.9237 19.9179C47.8391 19.7883 47.7215 19.6834 47.583 19.6143ZM41.0969 23.1809V18.3192L45.4152 20.4809L41.0969 23.1809Z" fill="black"/>
<path d="M58.516 35.2002H52.4192V33.4583H50.6773V35.2002H43.7095V33.4583H41.9676V35.2002H34.9998V33.4583H33.2579V35.2002H27.1611V36.9421H33.2579V38.6841H34.9998V36.9421H41.9676V38.6841H43.7095V36.9421H50.6773V38.6841H52.4192V36.9421H58.516V35.2002Z" fill="black"/>
</g>
</g>
<defs>
<clipPath id="clip0_2774_2142">
<rect width="70" height="69" fill="white" transform="translate(0 0.200195)"/>
</clipPath>
<clipPath id="clip1_2774_2142">
<rect width="1920" height="901" fill="white" transform="translate(0 0.200195)"/>
</clipPath>
</defs>
</svg>
