<svg width="26" height="26" viewBox="0 0 26 26" fill="none" xmlns="http://www.w3.org/2000/svg">
<circle cx="12.6" cy="12.6" r="12.1" stroke="#D4D4D8"/>
<path fill-rule="evenodd" clip-rule="evenodd" d="M13.1464 6.50391C9.91451 6.50391 7.31445 9.10396 7.31445 12.3358C7.31445 14.9116 8.99113 17.0985 11.2996 17.8761C11.5912 17.9247 11.6884 17.7546 11.6884 17.5845C11.6884 17.4387 11.6884 17.0742 11.6884 16.5882C10.0603 16.9527 9.72011 15.8107 9.72011 15.8107C9.45282 15.1303 9.06402 14.9602 9.06402 14.9602C8.52943 14.5957 9.11262 14.5957 9.11262 14.5957C9.69581 14.6443 10.0117 15.2032 10.0117 15.2032C10.522 16.1023 11.3725 15.835 11.7127 15.6892C11.7613 15.3004 11.9071 15.0574 12.0772 14.9116C10.7893 14.7658 9.42852 14.2555 9.42852 12.0199C9.42852 11.3881 9.64722 10.8535 10.036 10.4647C9.98741 10.3189 9.76871 9.73575 10.0846 8.90957C10.0846 8.90957 10.5706 8.76377 11.6884 9.51706C12.1501 9.39556 12.6604 9.32266 13.1464 9.32266C13.6324 9.32266 14.1426 9.39556 14.6043 9.51706C15.7221 8.76377 16.2081 8.90957 16.2081 8.90957C16.524 9.71145 16.3296 10.2946 16.2567 10.4647C16.6212 10.8778 16.8642 11.3881 16.8642 12.0199C16.8642 14.2555 15.5034 14.7415 14.1912 14.8873C14.4099 15.0574 14.58 15.4219 14.58 15.9565C14.58 16.734 14.58 17.3658 14.58 17.5602C14.58 17.706 14.6772 17.9004 14.9931 17.8518C17.3016 17.0985 18.9783 14.9116 18.9783 12.3358C18.9783 9.10396 16.3782 6.50391 13.1464 6.50391Z" fill="#090914"/>
</svg>
